<svg width="400" height="400" viewBox="0 0 400 400" fill="none" xmlns="http://www.w3.org/2000/svg">
<rect width="400" height="400" rx="200" fill="#F87D0A"/>
<path d="M140 146.667C143.682 146.667 146.667 143.682 146.667 140C146.667 136.318 143.682 133.333 140 133.333C136.318 133.333 133.333 136.318 133.333 140C133.333 143.682 136.318 146.667 140 146.667Z" fill="white"/>
<path d="M207.813 74.48C202.814 69.4786 196.032 66.6681 188.96 66.6666H93.3333C86.2609 66.6666 79.4781 69.4761 74.4771 74.4771C69.4761 79.4781 66.6666 86.2609 66.6666 93.3333V188.96C66.6681 196.032 69.4786 202.814 74.48 207.813L190.533 323.867C196.593 329.889 204.79 333.268 213.333 333.268C221.877 333.268 230.073 329.889 236.133 323.867L323.867 236.133C329.889 230.073 333.268 221.877 333.268 213.333C333.268 204.79 329.889 196.593 323.867 190.533L207.813 74.48Z" stroke="white" stroke-width="20" stroke-linecap="round" stroke-linejoin="round"/>
<path d="M140 146.667C143.682 146.667 146.667 143.682 146.667 140C146.667 136.318 143.682 133.333 140 133.333C136.318 133.333 133.333 136.318 133.333 140C133.333 143.682 136.318 146.667 140 146.667Z" stroke="white" stroke-width="20" stroke-linecap="round" stroke-linejoin="round"/>
</svg>
