<svg width="130" height="20" viewBox="0 0 130 20" fill="none" xmlns="http://www.w3.org/2000/svg">
<path d="M0.852273 4.58807V1.54545H15.1875V4.58807H9.84375V19H6.19602V4.58807H0.852273ZM17.4801 19V5.90909H21.1108V19H17.4801ZM19.304 4.22159C18.7642 4.22159 18.3011 4.04261 17.9148 3.68466C17.5341 3.32102 17.3438 2.88636 17.3438 2.38068C17.3438 1.88068 17.5341 1.4517 17.9148 1.09375C18.3011 0.730113 18.7642 0.548295 19.304 0.548295C19.8438 0.548295 20.304 0.730113 20.6847 1.09375C21.071 1.4517 21.2642 1.88068 21.2642 2.38068C21.2642 2.88636 21.071 3.32102 20.6847 3.68466C20.304 4.04261 19.8438 4.22159 19.304 4.22159ZM29.9339 19.2557C28.593 19.2557 27.4396 18.9716 26.4737 18.4034C25.5135 17.8295 24.7749 17.0341 24.2578 16.017C23.7464 15 23.4908 13.8295 23.4908 12.5057C23.4908 11.1648 23.7493 9.98864 24.2663 8.97727C24.7891 7.96023 25.5305 7.16761 26.4908 6.59943C27.451 6.02557 28.593 5.73864 29.9169 5.73864C31.0589 5.73864 32.0589 5.94602 32.9169 6.36079C33.7749 6.77557 34.4538 7.35795 34.9538 8.10795C35.4538 8.85795 35.7294 9.73864 35.7805 10.75H32.3544C32.2578 10.0966 32.0021 9.57102 31.5874 9.1733C31.1783 8.76989 30.6413 8.56818 29.9766 8.56818C29.4141 8.56818 28.9226 8.72159 28.5021 9.02841C28.0874 9.32955 27.7635 9.76989 27.5305 10.3494C27.2976 10.929 27.1811 11.6307 27.1811 12.4545C27.1811 13.2898 27.2947 14 27.522 14.5852C27.755 15.1705 28.0817 15.6165 28.5021 15.9233C28.9226 16.2301 29.4141 16.3835 29.9766 16.3835C30.3913 16.3835 30.7635 16.2983 31.093 16.1278C31.4283 15.9574 31.7038 15.7102 31.9197 15.3864C32.1413 15.0568 32.2862 14.6619 32.3544 14.2017H35.7805C35.7237 15.2017 35.451 16.0824 34.9624 16.8438C34.4794 17.5994 33.8118 18.1903 32.9595 18.6165C32.1072 19.0426 31.0987 19.2557 29.9339 19.2557ZM41.3949 15.233L41.4034 10.8778H41.9318L46.125 5.90909H50.2926L44.6591 12.4886H43.7983L41.3949 15.233ZM38.1051 19V1.54545H41.7358V19H38.1051ZM46.2869 19L42.4347 13.2983L44.8551 10.733L50.5398 19H46.2869ZM57.5007 19.2557C56.1541 19.2557 54.995 18.983 54.0234 18.4375C53.0575 17.8864 52.3132 17.108 51.7905 16.1023C51.2678 15.0909 51.0064 13.8949 51.0064 12.5142C51.0064 11.1676 51.2678 9.9858 51.7905 8.96875C52.3132 7.9517 53.049 7.15909 53.9979 6.59091C54.9524 6.02273 56.0717 5.73864 57.3558 5.73864C58.2195 5.73864 59.0234 5.87784 59.7678 6.15625C60.5178 6.42898 61.1712 6.84091 61.728 7.39205C62.2905 7.94318 62.728 8.63636 63.0405 9.47159C63.353 10.3011 63.5092 11.2727 63.5092 12.3864V13.3835H52.4553V11.1335H60.0916C60.0916 10.6108 59.978 10.1477 59.7507 9.74432C59.5234 9.34091 59.2081 9.02557 58.8047 8.7983C58.407 8.56534 57.9439 8.44886 57.4155 8.44886C56.8643 8.44886 56.3757 8.5767 55.9496 8.83239C55.5291 9.08239 55.1996 9.42045 54.9609 9.84659C54.7223 10.267 54.6001 10.7358 54.5945 11.2528V13.392C54.5945 14.0398 54.7138 14.5994 54.9524 15.071C55.1967 15.5426 55.5405 15.9062 55.9837 16.1619C56.4268 16.4176 56.9524 16.5455 57.5604 16.5455C57.9638 16.5455 58.3331 16.4886 58.6683 16.375C59.0036 16.2614 59.2905 16.0909 59.5291 15.8636C59.7678 15.6364 59.9496 15.358 60.0746 15.0284L63.4325 15.25C63.2621 16.0568 62.9126 16.7614 62.3842 17.3636C61.8615 17.9602 61.1854 18.4261 60.3558 18.7614C59.532 19.0909 58.5803 19.2557 57.5007 19.2557ZM72.8416 5.90909V8.63636H64.9581V5.90909H72.8416ZM66.7479 2.77273H70.3786V14.9773C70.3786 15.3125 70.4297 15.5739 70.532 15.7614C70.6342 15.9432 70.7763 16.071 70.9581 16.1449C71.1456 16.2187 71.3615 16.2557 71.6058 16.2557C71.7763 16.2557 71.9467 16.2415 72.1172 16.2131C72.2876 16.179 72.4183 16.1534 72.5092 16.1364L73.0803 18.8381C72.8984 18.8949 72.6428 18.9602 72.3132 19.0341C71.9837 19.1136 71.5831 19.1619 71.1115 19.179C70.2365 19.2131 69.4695 19.0966 68.8104 18.8295C68.157 18.5625 67.6484 18.1477 67.2848 17.5852C66.9212 17.0227 66.7422 16.3125 66.7479 15.4545V2.77273Z" fill="#000810"/>
<path d="M75.5561 19V1.54545H82.4425C83.7663 1.54545 84.8942 1.7983 85.826 2.30398C86.7578 2.80398 87.468 3.5 87.9567 4.39204C88.451 5.27841 88.6982 6.30114 88.6982 7.46023C88.6982 8.61932 88.4482 9.64205 87.9482 10.5284C87.4482 11.4148 86.7237 12.1051 85.7749 12.5994C84.8317 13.0937 83.6896 13.3409 82.3487 13.3409H77.9595V10.3835H81.7521C82.4624 10.3835 83.0476 10.2614 83.5078 10.017C83.9737 9.76705 84.3203 9.4233 84.5476 8.9858C84.7805 8.54261 84.897 8.03409 84.897 7.46023C84.897 6.88068 84.7805 6.375 84.5476 5.94318C84.3203 5.50568 83.9737 5.16761 83.5078 4.92898C83.0419 4.68466 82.451 4.5625 81.7351 4.5625H79.2464V19H75.5561ZM94.4084 19.2472C93.5732 19.2472 92.8288 19.1023 92.1754 18.8125C91.522 18.517 91.005 18.0824 90.6243 17.5085C90.2493 16.929 90.0618 16.2074 90.0618 15.3438C90.0618 14.6165 90.1953 14.0057 90.4624 13.5114C90.7294 13.017 91.093 12.6193 91.5533 12.3182C92.0135 12.017 92.5362 11.7898 93.1214 11.6364C93.7124 11.483 94.3317 11.375 94.9794 11.3125C95.7408 11.233 96.3544 11.1591 96.8203 11.0909C97.2862 11.017 97.6243 10.9091 97.8345 10.767C98.0447 10.625 98.1499 10.4148 98.1499 10.1364V10.0852C98.1499 9.54545 97.9794 9.12784 97.6385 8.83239C97.3033 8.53693 96.826 8.3892 96.2067 8.3892C95.5533 8.3892 95.0334 8.53409 94.647 8.82386C94.2607 9.10795 94.005 9.46591 93.88 9.89773L90.522 9.625C90.6925 8.82955 91.0277 8.14205 91.5277 7.5625C92.0277 6.97727 92.6726 6.52841 93.4624 6.21591C94.2578 5.89773 95.1783 5.73864 96.2237 5.73864C96.951 5.73864 97.647 5.82386 98.3118 5.99432C98.9822 6.16477 99.576 6.42898 100.093 6.78693C100.616 7.14489 101.028 7.60511 101.329 8.16761C101.63 8.72443 101.781 9.39205 101.781 10.1705V19H98.3374V17.1847H98.2351C98.0249 17.5938 97.7436 17.9545 97.3913 18.267C97.0391 18.5739 96.6158 18.8153 96.1214 18.9915C95.6271 19.1619 95.0561 19.2472 94.4084 19.2472ZM95.4482 16.7415C95.9822 16.7415 96.4538 16.6364 96.8629 16.4261C97.272 16.2102 97.593 15.9205 97.826 15.5568C98.0589 15.1932 98.1754 14.7812 98.1754 14.321V12.9318C98.0618 13.0057 97.9055 13.0739 97.7067 13.1364C97.5135 13.1932 97.2947 13.2472 97.0504 13.2983C96.8061 13.3437 96.5618 13.3864 96.3175 13.4261C96.0732 13.4602 95.8516 13.4915 95.6527 13.5199C95.2266 13.5824 94.8544 13.6818 94.5362 13.8182C94.218 13.9545 93.9709 14.1392 93.7947 14.3722C93.6186 14.5994 93.5305 14.8835 93.5305 15.2244C93.5305 15.7188 93.7095 16.0966 94.0675 16.358C94.4311 16.6136 94.8913 16.7415 95.4482 16.7415ZM115.489 9.64205L112.165 9.84659C112.109 9.5625 111.987 9.30682 111.799 9.07955C111.612 8.84659 111.364 8.66193 111.058 8.52557C110.756 8.38352 110.396 8.3125 109.975 8.3125C109.413 8.3125 108.938 8.43182 108.552 8.67045C108.165 8.90341 107.972 9.21591 107.972 9.60795C107.972 9.92045 108.097 10.1847 108.347 10.4006C108.597 10.6165 109.026 10.7898 109.634 10.9205L112.004 11.3977C113.276 11.6591 114.225 12.0795 114.85 12.6591C115.475 13.2386 115.788 14 115.788 14.9432C115.788 15.8011 115.535 16.554 115.029 17.2017C114.529 17.8494 113.842 18.3551 112.967 18.7188C112.097 19.0767 111.094 19.2557 109.958 19.2557C108.225 19.2557 106.844 18.8949 105.816 18.1733C104.793 17.446 104.194 16.4574 104.018 15.2074L107.589 15.0199C107.697 15.5483 107.958 15.9517 108.373 16.2301C108.788 16.5028 109.319 16.6392 109.967 16.6392C110.603 16.6392 111.114 16.517 111.501 16.2727C111.893 16.0227 112.092 15.7017 112.097 15.3097C112.092 14.9801 111.952 14.7102 111.68 14.5C111.407 14.2841 110.987 14.1193 110.418 14.0057L108.151 13.554C106.873 13.2983 105.921 12.8551 105.296 12.2244C104.677 11.5937 104.367 10.7898 104.367 9.8125C104.367 8.97159 104.594 8.24716 105.049 7.6392C105.509 7.03125 106.154 6.5625 106.984 6.23295C107.819 5.90341 108.796 5.73864 109.915 5.73864C111.569 5.73864 112.87 6.08807 113.819 6.78693C114.773 7.4858 115.33 8.4375 115.489 9.64205ZM128.966 9.64205L125.642 9.84659C125.585 9.5625 125.463 9.30682 125.276 9.07955C125.088 8.84659 124.841 8.66193 124.534 8.52557C124.233 8.38352 123.872 8.3125 123.452 8.3125C122.889 8.3125 122.415 8.43182 122.028 8.67045C121.642 8.90341 121.449 9.21591 121.449 9.60795C121.449 9.92045 121.574 10.1847 121.824 10.4006C122.074 10.6165 122.503 10.7898 123.111 10.9205L125.48 11.3977C126.753 11.6591 127.702 12.0795 128.327 12.6591C128.952 13.2386 129.264 14 129.264 14.9432C129.264 15.8011 129.011 16.554 128.506 17.2017C128.006 17.8494 127.318 18.3551 126.443 18.7188C125.574 19.0767 124.571 19.2557 123.435 19.2557C121.702 19.2557 120.321 18.8949 119.293 18.1733C118.27 17.446 117.67 16.4574 117.494 15.2074L121.065 15.0199C121.173 15.5483 121.435 15.9517 121.849 16.2301C122.264 16.5028 122.795 16.6392 123.443 16.6392C124.08 16.6392 124.591 16.517 124.977 16.2727C125.369 16.0227 125.568 15.7017 125.574 15.3097C125.568 14.9801 125.429 14.7102 125.156 14.5C124.884 14.2841 124.463 14.1193 123.895 14.0057L121.628 13.554C120.349 13.2983 119.398 12.8551 118.773 12.2244C118.153 11.5937 117.844 10.7898 117.844 9.8125C117.844 8.97159 118.071 8.24716 118.526 7.6392C118.986 7.03125 119.631 6.5625 120.46 6.23295C121.295 5.90341 122.273 5.73864 123.392 5.73864C125.045 5.73864 126.347 6.08807 127.295 6.78693C128.25 7.4858 128.807 8.4375 128.966 9.64205Z" fill="#F97316"/>
</svg>
